<svg width="50" height="50" viewBox="0 0 50 50" fill="none" xmlns="http://www.w3.org/2000/svg" xmlns:xlink="http://www.w3.org/1999/xlink">
<path d="M24.054,0C15.135,0 8,7.135 8,15.875C8,29.075 22.27,40.313 22.983,40.669C23.34,40.848 23.697,41.026 24.054,41.026C24.41,41.026 24.767,40.848 25.124,40.669C25.837,40.134 40.107,29.075 40.107,15.875C40.107,7.135 32.972,0 24.054,0ZM24.054,21.405C21.021,21.405 18.702,19.086 18.702,16.054C18.702,13.021 21.021,10.702 24.054,10.702C27.086,10.702 29.405,13.021 29.405,16.054C29.405,19.086 27.086,21.405 24.054,21.405Z" fill="#FFFF00"/>
<path d="M49.794,47.448L42.659,33.178C42.302,32.464 41.767,32.107 41.054,32.107L38.913,32.107C34.632,38.529 29.281,42.81 28.211,43.523C27.319,44.237 26.249,44.594 25,44.594C23.751,44.594 22.681,44.237 21.789,43.523C20.897,42.81 15.368,38.529 11.087,32.107L8.946,32.107C8.233,32.107 7.698,32.464 7.341,33.178L0.206,47.448C-0.151,47.983 0.028,48.696 0.206,49.231C0.384,49.766 1.276,49.945 1.811,49.945L48.189,49.945C48.724,49.945 49.437,49.588 49.794,49.053C50.151,48.518 49.972,47.983 49.794,47.448Z" fill="#FFFF00"/>
</svg>
