<svg width="50" height="50" viewBox="0 0 50 50" fill="none" xmlns="http://www.w3.org/2000/svg" xmlns:xlink="http://www.w3.org/1999/xlink">
<path d="M19.176,30.85C23.661,35.301 28.852,39.554 30.89,37.501C33.808,34.561 35.604,32.004 42.079,37.168C48.554,42.334 43.608,45.811 40.782,48.659C37.521,51.945 25.306,48.889 13.199,36.874C1.092,24.856 -2.057,12.665 1.207,9.377C4.034,6.529 7.473,1.559 12.685,7.996C17.899,14.43 15.355,16.246 12.437,19.186C10.4,21.239 14.691,26.397 19.176,30.85ZM25.679,9.612C25.679,9.612 24.326,9.4 23.379,10.348C22.404,11.323 22.361,13.003 23.389,14.03C23.996,14.637 24.852,14.766 24.852,14.766C26.522,15.079 29.037,15.609 31.714,18.286C34.39,20.962 34.92,23.477 35.233,25.147C35.233,25.147 35.363,26.004 35.97,26.611C36.997,27.638 38.677,27.596 39.652,26.621C40.599,25.674 40.388,24.321 40.388,24.321C39.858,20.94 38.219,17.408 35.405,14.594C32.591,11.781 29.059,10.142 25.679,9.612ZM38.369,11.631C43.276,16.537 45.368,22.106 44.687,26.618C44.687,26.618 44.449,28.047 45.382,28.981C46.433,30.031 48.098,29.97 49.081,28.988C49.713,28.356 49.851,27.328 49.851,27.328C50.414,23.428 49.706,15.583 42.061,7.939C34.416,0.295 26.571,-0.413 22.672,0.149C22.672,0.149 21.644,0.286 21.012,0.919C20.028,1.902 19.969,3.567 21.019,4.617C21.952,5.551 23.381,5.313 23.381,5.313C27.894,4.632 33.462,6.724 38.369,11.631Z" fill="#FFFF00"/>
</svg>
