<svg width="50" height="50" viewBox="0 0 50 50" fill="none" xmlns="http://www.w3.org/2000/svg" xmlns:xlink="http://www.w3.org/1999/xlink">
<path d="M25,0C11.193,0 0,11.193 0,25C0,38.807 11.193,50 25,50C38.807,50 50,38.807 50,25C50,11.193 38.807,0 25,0ZM40.847,14.258L36.29,14.258C35.766,12.059 35.086,10.038 34.279,8.251C35.821,9.108 37.253,10.184 38.534,11.466C39.401,12.332 40.173,13.267 40.847,14.258ZM44.141,25C44.141,26.671 43.927,28.308 43.514,29.883L37.261,29.883C37.417,28.304 37.5,26.671 37.5,25C37.5,23.329 37.417,21.696 37.261,20.117L43.514,20.117C43.927,21.692 44.141,23.329 44.141,25ZM25,44.141C24.492,44.141 22.945,43.142 21.402,40.057C20.763,38.779 20.215,37.324 19.766,35.742L30.234,35.742C29.785,37.323 29.237,38.779 28.598,40.057C27.055,43.142 25.508,44.141 25,44.141ZM18.634,29.883C18.454,28.296 18.359,26.657 18.359,25C18.359,23.343 18.454,21.704 18.634,20.117L31.366,20.117C31.546,21.704 31.641,23.343 31.641,25C31.641,26.657 31.546,28.296 31.366,29.883L18.634,29.883ZM5.859,25C5.859,23.329 6.073,21.692 6.486,20.117L12.739,20.117C12.583,21.696 12.5,23.329 12.5,25C12.5,26.671 12.583,28.304 12.739,29.883L6.486,29.883C6.073,28.308 5.859,26.671 5.859,25ZM25,5.859C25.508,5.859 27.055,6.858 28.598,9.943C29.237,11.221 29.785,12.676 30.234,14.258L19.766,14.258C20.215,12.677 20.763,11.221 21.402,9.943C22.945,6.858 24.492,5.859 25,5.859ZM15.721,8.251C14.914,10.038 14.234,12.059 13.71,14.258L9.153,14.258C9.828,13.267 10.599,12.332 11.466,11.466C12.747,10.184 14.179,9.108 15.721,8.251ZM9.153,35.742L13.71,35.742C14.234,37.941 14.914,39.962 15.721,41.749C14.179,40.892 12.747,39.816 11.466,38.534C10.599,37.668 9.827,36.733 9.153,35.742ZM34.279,41.749C35.086,39.962 35.766,37.941 36.29,35.742L40.847,35.742C40.172,36.733 39.401,37.668 38.534,38.534C37.253,39.816 35.821,40.892 34.279,41.749Z" fill="#FFFF00"/>
</svg>
